<?xml version="1.0" encoding="utf-8"?>
<!-- Generator: Adobe Illustrator 27.0.0, SVG Export Plug-In . SVG Version: 6.00 Build 0)  -->
<svg version="1.1" id="Layer_1" xmlns="http://www.w3.org/2000/svg" xmlns:xlink="http://www.w3.org/1999/xlink" x="0px" y="0px"
	 viewBox="0 0 360 360" style="enable-background:new 0 0 360 360;" xml:space="preserve">
<style type="text/css">
	.st0{fill-rule:evenodd;clip-rule:evenodd;fill:#C8171E;}
</style>
<g>
	<g>
		<path class="st0" d="M179.7,0C80.46,0-0.29,80.75-0.29,180c0,99.25,80.75,180,179.99,180c99.26,0,180.01-80.75,180.01-180
			C359.71,80.75,278.96,0,179.7,0L179.7,0z M355.31,180c0,96.83-78.77,175.61-175.61,175.61C82.88,355.6,4.11,276.83,4.11,180
			c0-96.82,78.77-175.6,175.59-175.6C276.54,4.39,355.31,83.17,355.31,180z"/>
		<path class="st0" d="M179.7,6.71C84.16,6.71,6.42,84.45,6.42,180c0,95.56,77.74,173.3,173.28,173.3
			c95.56,0,173.29-77.74,173.29-173.3C352.99,84.45,275.26,6.71,179.7,6.71L179.7,6.71z M351.35,180
			c0,94.64-77,171.65-171.64,171.65c-94.64,0-171.63-77-171.63-171.65c0-94.64,77-171.63,171.63-171.63
			C274.34,8.36,351.35,85.36,351.35,180z"/>
		<path class="st0" d="M124.99,25.28c-0.25,6.47,5.75,3.07,9.58,2.78c1.34-0.11,13.43-4.83,11.72,0.14
			c-1.05,3.09-5.01,2.07-7.47,2.35c-2.92,0.34-6.23,1.4-8.92,2.63c-2.62,1.2-0.67,2.89,1.43,2.36c1.94-0.48,3.76-0.66,5.75-0.55
			c4.77,0.28,9.79,1.66,13.71,4.44c1.99,1.41,7.69,7.06,4.1,8.76c-2.17,1.03-5.16-1.99-6.71-3.35c-2.49-2.17-4.15-4.1-7.44-5.14
			c-5.92-1.86-11.97-0.71-16.68,3.36c-4.28,3.71-7.42,7.92-8.43,13.52c-0.41,2.31-1.4,10.63-5.22,7.87
			c-4.22-3.04,1.79-12.93,2.9-14.69c0.55-0.87,1.6-2.05,2.73-3.27c0.73-0.79,2.37-2.72,3.63-4.16c0.68-0.78,2.92-2.9,3.81-3.61
			c1.33-1.05,1.88-2.91-0.58-2.79c-2.33,0.1-3.36,1.48-6.19,2.68c-2.83,1.19-10.11,7.89-11.49,3.92c-1.7-4.91,9.17-6.88,12.11-8.05
			c0.69-0.27,1.61-0.59,2.33-0.87c0.57-0.22,1.34-0.72,1.44-0.86c0.61-0.8,1.05-1.96,0.81-2.54c-0.6-1.45-1.68-3.26-1.68-4.77
			C121.44,24.36,123.72,24.27,124.99,25.28z"/>
		<path class="st0" d="M115.39,223.99l-12.72-6.81l-4.23,7.38c3.05,2.07,4.53,5.22,4.93,8.86l22.69,12.14l6.94-12.14l-11.36-6.07
			l35.12-65.39c0.17-0.28,0.1-0.54-0.22-0.73l-5.37-2.86c-0.37-0.17-0.61-0.08-0.76,0.2L115.39,223.99L115.39,223.99z"/>
		<g>
			<path class="st0" d="M136.38,229.09h92.27c1.88,0,3.42,1.55,3.42,3.43v21.21c0,1.9-1.54,3.44-3.42,3.44h-92.27
				c-1.88,0-3.41-1.54-3.41-3.44v-21.21C132.96,230.64,134.5,229.09,136.38,229.09L136.38,229.09L136.38,229.09z M137.51,232.07
				L137.51,232.07c-0.78,0.01-1.43,0.65-1.43,1.43v18.82c0,1.02,0.85,1.87,1.87,1.87h89.24c1.02,0,1.87-0.85,1.87-1.87v-18.37
				c0-1.03-0.85-1.88-1.87-1.88H137.51z"/>
		</g>
		<rect x="130.2" y="124.06" class="st0" width="31.34" height="6.83"/>
		<rect x="130.2" y="134.46" class="st0" width="31.34" height="6.84"/>
		<rect x="130.2" y="144.88" class="st0" width="31.34" height="6.84"/>
		<path class="st0" d="M250.68,190.56h1.94c0.55,0,0.99,0.36,0.99,0.79v2.25c0.99-0.56,1.68-1.6,1.68-2.81v-9.35
			c0-1.22-0.68-2.28-1.68-2.83v1.84c0,0.42-0.45,0.79-0.99,0.79h-1.94c-0.54,0-0.99-0.36-0.99-0.79v-1.84
			c-0.99,0.55-1.65,1.61-1.65,2.83v9.35c0,1.21,0.67,2.26,1.65,2.81v-2.25C249.68,190.91,250.13,190.56,250.68,190.56L250.68,190.56
			z M123.69,163.59c-1.11-0.01-2.15,0.07-2.71,0.97c-1.7,2.68-1.32,10.06-1.32,13.01h-8.05l-2.01-1.96v-13.45
			c1.94-3.15,6.85-5.49,15.9-5.48l19.59,0.02c0.63,0,0.85,0.52,0.67,0.86l-10.75,20l-11.31,0.01V163.59L123.69,163.59L123.69,163.59
			z M151.63,181.16L151.63,181.16l11.25-21.01c0.29-0.47,0.05-0.9-0.32-1.07l-4.48-2.32h108.17v7.81c0-0.31,0.04,3.36-9.81,4.99
			c-0.95,0.12-1.88,0.36-2.82,0.49v4.61c2.68,0.24,4.79,2.51,4.79,5.24v12.49c0,2.74-2.12,5.01-4.79,5.25v6.96
			c2.68,0.23,4.79,2.52,4.79,5.25v12.23c0,2.9-2.37,5.27-5.26,5.27h-2.98c-2.9,0-5.27-2.37-5.27-5.27v-12.23
			c0-2.74,2.12-5.02,4.79-5.25v-6.96c-2.67-0.25-4.79-2.51-4.79-5.25V179.9c0-2.72,2.12-5,4.79-5.24v-4
			c-7.68,1.29-15.1,3.56-20.77,10.08h-6.83c0,0-2.96,1.39-6.02,4.07c-2.09,1.83-4.23,4.26-5.51,7.26h-2.37
			c-0.01,0.02-1.13,0.67-2.18,1.77c-0.02,0.03-0.04,0.04-0.05,0.06l-0.09,0.08c-0.02,0.03-0.05,0.05-0.07,0.08l0,0
			c-0.03,0.03-0.05,0.05-0.07,0.08h-0.01c-0.02,0.02-0.03,0.06-0.06,0.07v0.01c-0.02,0.02-0.04,0.04-0.07,0.07c0,0,0,0,0,0.01
			c-0.02,0.02-0.04,0.04-0.05,0.06c0,0.01-0.01,0.02-0.01,0.02c-0.01,0.02-0.03,0.03-0.05,0.06h-0.01
			c-0.01,0.03-0.04,0.06-0.06,0.09c-0.8,1-1.4,2.26-1.19,3.65c0.53,3.42,1.58,4.2,4.72,6.83c3.15,2.64,8.91,8.44,11.27,11.6
			c2.03,2.72,2.31,6.6,0.69,7.65c-0.26,0.17-0.58,0.27-0.95,0.27h-38.01v-0.01h-37.75c-2.62,0-2.62-4.74-0.27-7.9
			c2.35-3.16,8.14-8.96,11.28-11.6c3.15-2.63,4.19-3.41,4.72-6.83c0.52-3.44-3.94-6.08-3.94-6.08h-2.36
			c-0.84-1.64-2.55-4.31-4.17-5.62h30.75c0.96,0,1.75-0.8,1.75-1.75v-1.79c0-0.96-0.79-1.75-1.75-1.75H151.63L151.63,181.16z
			 M253.62,208.55v1.71c0,0.43-0.45,0.79-0.99,0.79h-1.95c-0.54,0-0.99-0.36-0.99-0.79v-1.71c-0.98,0.55-1.65,1.61-1.65,2.83v9.08
			c0,1.79,1.45,3.24,3.21,3.24h0.81c1.77,0,3.23-1.46,3.23-3.24v-9.08C255.29,210.16,254.62,209.1,253.62,208.55L253.62,208.55z
			 M155.3,213.59c-0.96,0-1.75,0.8-1.75,1.77v1.78c0,0.96,0.79,1.76,1.75,1.76h53.15c0.97,0,1.77-0.8,1.77-1.76v-1.78
			c0-0.97-0.8-1.77-1.77-1.77H155.3L155.3,213.59z M164.64,202.13c-0.97,0-1.77,0.8-1.77,1.76v1.78c0,0.97,0.81,1.77,1.77,1.77
			h34.48c0.96,0,1.75-0.8,1.75-1.77v-1.78c0-0.96-0.79-1.76-1.75-1.76H164.64L164.64,202.13z M165.95,191.32
			c-0.97,0-1.75,0.79-1.75,1.75v1.78c0,0.96,0.8,1.76,1.75,1.76h31.85c0.96,0,1.75-0.8,1.75-1.76v-1.78c0-0.96-0.8-1.75-1.75-1.75
			H165.95L165.95,191.32z M193.62,181.16c-0.96,0-1.75,0.78-1.75,1.75v1.79c0,0.96,0.81,1.75,1.75,1.75h14.29
			c0.96,0,1.75-0.8,1.75-1.75v-1.79c0-0.96-0.79-1.75-1.75-1.75H193.62z"/>
		<rect x="164.06" y="124.06" class="st0" width="5.41" height="6.83"/>
		<path class="st0" d="M134.28,117.8c9.59-0.52,19.95-3.74,28.98-8.32l2.82,6.22c-9.94,4.78-21.14,7.98-30.16,8.43L134.28,117.8z"/>
		<polygon class="st0" points="170.55,105.99 165.65,108.35 168.45,114.5 173.38,112.11 170.55,105.99 		"/>
		<rect x="164.06" y="134.46" class="st0" width="5.41" height="6.84"/>
		<rect x="164.06" y="144.88" class="st0" width="5.41" height="6.84"/>
		<path class="st0" d="M202.27,114.02l9.9-5.46l20.85,37.82l-9.91,5.46L202.27,114.02L202.27,114.02z M208.57,119.26l1.2,2.09
			l4.45-2.49l-1.2-2.09L208.57,119.26L208.57,119.26z M211.1,123.81l1.2,2.08l4.46-2.47l-1.2-2.1L211.1,123.81z"/>
		<path class="st0" d="M190.6,103.63h11.91v48.17H190.6V103.63L190.6,103.63z M173.35,99.19h13.34v52.61h-13.34V99.19L173.35,99.19z
			 M177.47,105.99v2.37h5.11v-2.37H177.47L177.47,105.99z M177.47,111.22v2.38h5.11v-2.38H177.47L177.47,111.22z M177.47,116.43
			v2.38h5.11v-2.38H177.47L177.47,116.43z M177.47,121.65v2.38h5.11v-2.38H177.47L177.47,121.65z M194.01,111.22v2.38h5.1v-2.38
			H194.01L194.01,111.22z M194.01,116.43v2.38h5.1v-2.38H194.01L194.01,116.43z M194.01,121.65v2.38h5.1v-2.38H194.01z"/>
		<path class="st0" d="M179.67,282.4c-56.41,0-102.34-45.96-102.34-102.33c0-56.43,45.93-102.39,102.34-102.39
			c56.42,0,102.41,45.96,102.41,102.39C282.08,236.43,236.09,282.4,179.67,282.4L179.67,282.4z M304.38,176.7l-9.78-1.27
			c-0.38-0.06-0.63-0.19-0.89-0.51c-0.07-1.58-0.12-3.17-0.25-4.69c0.12-0.31,0.38-0.51,0.76-0.57l9.53-2.54
			c0.12-0.07,0.31-0.12,0.31-0.5c-0.12-0.82-0.19-1.78-0.38-2.85v-0.07v-0.05c-0.12-1.02-0.25-1.98-0.38-2.81
			c-0.06-0.38-0.25-0.38-0.44-0.38h-9.85c-0.38,0-0.7-0.12-0.89-0.37c-0.31-1.52-0.63-3.05-0.95-4.64c0.13-0.31,0.32-0.5,0.7-0.63
			l9.15-3.81c0.13-0.07,0.32-0.13,0.18-0.51c-0.18-0.83-0.37-1.7-0.69-2.72v-0.07v-0.06c-0.31-1.02-0.57-1.97-0.76-2.8
			c-0.13-0.32-0.31-0.32-0.51-0.32l-9.78,1.34c-0.37,0.06-0.63,0-0.95-0.25c-0.45-1.53-0.95-2.99-1.53-4.45
			c0.12-0.38,0.32-0.64,0.64-0.83l8.58-4.88c0.12-0.07,0.25-0.19,0.12-0.51c-0.25-0.83-0.64-1.72-1.02-2.67l-0.06-0.06v-0.08
			c-0.45-1.01-0.83-1.84-1.15-2.67c-0.12-0.3-0.31-0.25-0.51-0.25l-9.53,2.6c-0.38,0.13-0.7,0.07-1.02-0.19
			c-0.63-1.4-1.33-2.73-2.02-4.06c0-0.44,0.19-0.71,0.5-0.95l7.82-5.98c0.12-0.12,0.26-0.25,0.12-0.57
			c-0.43-0.76-0.89-1.59-1.4-2.48c0,0,0-0.06-0.06-0.06v-0.07c-0.58-0.95-1.02-1.78-1.46-2.47c-0.19-0.31-0.38-0.25-0.57-0.19
			l-9.08,3.81c-0.39,0.19-0.71,0.13-1.08-0.06c-0.83-1.27-1.65-2.48-2.48-3.68c-0.12-0.45,0-0.77,0.33-1.08l6.98-6.98
			c0.12-0.13,0.26-0.25,0.06-0.57c-0.5-0.63-1.08-1.4-1.71-2.29h-0.06v-0.06h-0.07c-0.64-0.9-1.2-1.6-1.72-2.29
			c-0.25-0.25-0.44-0.18-0.57-0.07l-8.51,4.89c-0.38,0.25-0.76,0.25-1.15,0.07c-0.95-1.09-1.9-2.23-2.92-3.31
			c-0.12-0.38-0.06-0.75,0.2-1.08l6.03-7.8c0.12-0.12,0.18-0.31-0.07-0.57c-0.57-0.63-1.21-1.34-1.97-2.03v-0.06h-0.07v-0.06h-0.07
			c-0.7-0.78-1.4-1.4-2.04-1.98c-0.26-0.26-0.45-0.12-0.57-0.06l-7.82,6.03c-0.31,0.25-0.7,0.31-1.08,0.19
			c-1.08-0.95-2.22-1.97-3.3-2.86c-0.18-0.44-0.18-0.76,0.07-1.14l4.96-8.57c0.07-0.13,0.12-0.32-0.13-0.51
			c-0.7-0.55-1.4-1.13-2.28-1.77v-0.07h-0.06v-0.06c-0.89-0.64-1.65-1.2-2.29-1.72c-0.31-0.19-0.44-0.06-0.56,0.07l-6.98,6.98
			c-0.32,0.31-0.65,0.44-1.03,0.38c-1.27-0.89-2.47-1.71-3.75-2.54c-0.19-0.32-0.25-0.7-0.06-1.08l3.81-9.08
			c0.07-0.18,0.13-0.38-0.19-0.57c-0.7-0.45-1.52-0.89-2.47-1.46h-0.07c0,0,0-0.07-0.07-0.07c-0.89-0.51-1.72-0.95-2.47-1.4
			c-0.32-0.12-0.45,0-0.57,0.13l-5.97,7.8c-0.26,0.39-0.52,0.51-0.96,0.51c-1.33-0.7-2.67-1.39-4.07-2.03
			c-0.26-0.32-0.32-0.62-0.19-1.01l2.61-9.52c0-0.13,0.06-0.39-0.26-0.51c-0.82-0.31-1.65-0.7-2.67-1.15h-0.07h-0.07
			c-0.95-0.44-1.83-0.76-2.66-1.07c-0.31-0.12-0.45,0.06-0.51,0.18l-4.89,8.51c-0.19,0.38-0.44,0.57-0.83,0.63
			c-1.46-0.57-2.91-1.08-4.44-1.53c-0.25-0.25-0.32-0.57-0.25-0.95l1.33-9.78c0-0.18,0-0.37-0.32-0.43
			c-0.83-0.26-1.79-0.52-2.8-0.77v-0.06h-0.07h-0.06c-1.02-0.26-1.91-0.5-2.73-0.69c-0.38-0.07-0.45,0.06-0.51,0.24l-3.81,9.09
			c-0.13,0.38-0.31,0.57-0.64,0.7c-1.59-0.32-3.1-0.63-4.63-0.96c-0.26-0.18-0.38-0.5-0.38-0.9V56.9c0-0.12,0-0.37-0.38-0.37
			c-0.82-0.2-1.78-0.32-2.8-0.45H196h-0.06c-1.08-0.13-2.03-0.26-2.86-0.33c-0.38-0.06-0.45,0.14-0.45,0.27l-2.6,9.51
			c-0.07,0.39-0.26,0.65-0.58,0.83c-1.52-0.11-3.11-0.25-4.7-0.31c-0.25-0.19-0.44-0.51-0.44-0.89l-1.27-9.77
			c-0.07-0.13-0.12-0.32-0.45-0.32c-0.45-0.06-0.89-0.06-1.39-0.06h-0.12h-0.07h-0.12h-0.07h-0.07h-0.06h-0.07h-0.06h-0.07h-0.06
			h-0.12h-0.07h-0.18H180h-0.07h-0.07h-0.06h-0.07h-0.07h-0.06h-0.07h-0.06h-0.07h-0.07h-0.07h-0.06h-0.06h-0.07h-0.07h-0.05h-0.07
			h-0.07h-0.07h-0.06h-0.07h-0.07h-0.07h-0.43c-0.51,0-0.96,0-1.4,0.06c-0.31,0-0.38,0.19-0.38,0.32l-1.27,9.77
			c-0.07,0.38-0.2,0.7-0.5,0.89c-1.59,0.06-3.12,0.2-4.7,0.31c-0.26-0.18-0.45-0.44-0.51-0.83l-2.53-9.51
			c-0.07-0.13-0.13-0.32-0.45-0.27c-0.89,0.07-1.84,0.19-2.86,0.33h-0.07h-0.07c-1.07,0.12-2.04,0.25-2.86,0.45
			c-0.31,0-0.38,0.25-0.38,0.37v9.84c0.07,0.4-0.06,0.71-0.31,0.9c-1.59,0.32-3.11,0.64-4.64,0.96c-0.37-0.13-0.56-0.32-0.7-0.7
			l-3.75-9.09c-0.07-0.18-0.19-0.31-0.51-0.24c-0.83,0.19-1.78,0.43-2.8,0.69h-0.07c-0.06,0-0.06,0-0.06,0.06
			c-1.01,0.26-1.98,0.51-2.73,0.77c-0.38,0.06-0.31,0.25-0.31,0.43l1.26,9.78c0.07,0.38,0,0.7-0.25,0.95
			c-1.46,0.45-2.99,0.96-4.44,1.53c-0.32-0.06-0.57-0.25-0.77-0.63l-4.95-8.51c-0.06-0.12-0.19-0.31-0.51-0.18
			c-0.83,0.32-1.65,0.63-2.67,1.07h-0.07h-0.07c-0.94,0.45-1.84,0.83-2.61,1.15c-0.31,0.12-0.31,0.38-0.25,0.51l2.54,9.52
			c0.12,0.39,0.06,0.7-0.12,1.01c-1.4,0.64-2.8,1.34-4.14,2.03c-0.37,0-0.7-0.12-0.95-0.51l-5.91-7.8
			c-0.12-0.13-0.25-0.26-0.57-0.13c-0.7,0.45-1.58,0.89-2.47,1.4v0.07h-0.06h-0.07c-0.89,0.57-1.71,1.01-2.47,1.46
			c-0.25,0.18-0.19,0.38-0.12,0.57l3.75,9.08c0.19,0.38,0.19,0.76-0.07,1.08c-1.2,0.83-2.47,1.65-3.68,2.54
			c-0.45,0.06-0.76-0.07-1.08-0.38l-6.93-6.98c-0.13-0.13-0.32-0.26-0.57-0.07c-0.7,0.52-1.46,1.08-2.28,1.72l-0.07,0.06h-0.07v0.07
			c-0.82,0.64-1.58,1.21-2.23,1.77c-0.31,0.2-0.18,0.39-0.12,0.51l4.96,8.57c0.19,0.38,0.25,0.7,0.06,1.14
			c-1.14,0.9-2.22,1.91-3.3,2.86c-0.45,0.12-0.83,0.06-1.15-0.19l-7.81-6.03c-0.12-0.06-0.32-0.2-0.57,0.06
			c-0.63,0.57-1.27,1.2-2.04,1.98l-0.06,0.06c0,0,0,0.06-0.07,0.06c-0.7,0.69-1.39,1.4-1.97,2.03c-0.26,0.26-0.12,0.45-0.07,0.57
			l6.03,7.8c0.26,0.33,0.32,0.7,0.19,1.08c-0.96,1.08-1.91,2.23-2.86,3.31c-0.45,0.18-0.77,0.18-1.14-0.07l-8.57-4.89
			c-0.13-0.12-0.32-0.18-0.51,0.07c-0.58,0.7-1.16,1.4-1.78,2.29h-0.07v0.06c-0.7,0.88-1.27,1.65-1.72,2.29
			c-0.26,0.32-0.12,0.44,0,0.57l6.99,6.98c0.32,0.31,0.45,0.63,0.38,1.08c-0.89,1.2-1.71,2.41-2.54,3.68
			c-0.32,0.19-0.7,0.25-1.08,0.06l-9.08-3.81c-0.12-0.06-0.32-0.12-0.51,0.19c-0.45,0.7-0.96,1.52-1.46,2.47h-0.07v0.07v0.06
			c-0.57,0.9-1.01,1.72-1.39,2.48c-0.19,0.32-0.06,0.44,0.07,0.57l7.87,5.98c0.31,0.24,0.45,0.5,0.45,0.95
			c-0.7,1.32-1.33,2.66-2.03,4.06c-0.32,0.26-0.64,0.32-1.01,0.19l-9.53-2.6c-0.12,0-0.31-0.06-0.51,0.25
			c-0.32,0.83-0.69,1.66-1.07,2.67h-0.07v0.08v0.06c-0.44,0.95-0.76,1.84-1.08,2.67c-0.12,0.31,0.07,0.44,0.19,0.51l8.51,4.88
			c0.38,0.19,0.57,0.45,0.64,0.83c-0.57,1.46-1.02,2.92-1.53,4.45c-0.26,0.25-0.57,0.31-0.95,0.25l-9.79-1.34
			c-0.12,0-0.38,0-0.45,0.32c-0.25,0.83-0.51,1.78-0.75,2.8h-0.07v0.06v0.07c-0.25,1.02-0.5,1.9-0.7,2.72
			c-0.06,0.38,0.12,0.45,0.25,0.51l9.09,3.81c0.38,0.13,0.57,0.31,0.71,0.63c-0.32,1.59-0.64,3.12-0.9,4.64
			c-0.25,0.31-0.57,0.37-0.95,0.37h-9.85c-0.12,0-0.31,0-0.38,0.38c-0.12,0.83-0.32,1.78-0.45,2.81v0.05v0.07
			c-0.12,1.08-0.25,2.03-0.31,2.85c-0.06,0.38,0.12,0.44,0.26,0.5l9.52,2.54c0.39,0.06,0.64,0.26,0.83,0.57
			c-0.12,1.52-0.25,3.11-0.31,4.69c-0.19,0.32-0.45,0.45-0.9,0.51l-9.78,1.27c-0.13,0-0.32,0.06-0.32,0.37
			c-0.06,0.89-0.06,1.84-0.06,2.86V180v0.07v0.07c0,1.01,0,1.97,0.06,2.85c0,0.32,0.19,0.39,0.32,0.39l9.78,1.26
			c0.45,0.07,0.71,0.19,0.9,0.51c0.07,1.58,0.19,3.1,0.31,4.7c-0.19,0.31-0.44,0.5-0.83,0.56l-9.52,2.54
			c-0.13,0.08-0.31,0.13-0.26,0.51c0.07,0.83,0.19,1.78,0.31,2.8v0.07v0.06v0.07c0.13,1.01,0.26,1.97,0.45,2.8
			c0,0.37,0.26,0.37,0.38,0.37h9.85c0.37,0,0.7,0.07,0.95,0.32c0.26,1.59,0.57,3.1,0.9,4.7c-0.13,0.31-0.32,0.5-0.71,0.63
			l-9.09,3.81c-0.19,0.06-0.31,0.12-0.25,0.51c0.19,0.75,0.45,1.71,0.7,2.72v0.06v0.07h0.07c0.25,1.02,0.5,1.97,0.75,2.8
			c0.07,0.31,0.32,0.31,0.45,0.31l9.79-1.33c0.37-0.06,0.69,0,0.95,0.26c0.45,1.53,0.95,2.98,1.53,4.45
			c-0.07,0.37-0.26,0.63-0.64,0.75l-8.51,4.95c-0.12,0.07-0.31,0.19-0.19,0.5c0.32,0.83,0.64,1.71,1.08,2.67v0.07v0.07
			c0.45,1.02,0.82,1.85,1.14,2.66c0.13,0.26,0.39,0.26,0.51,0.2l9.53-2.54c0.37-0.13,0.69-0.06,1.01,0.19
			c0.63,1.34,1.34,2.72,2.03,4.06c0,0.45-0.13,0.7-0.5,0.95l-7.81,5.97c-0.12,0.12-0.26,0.25-0.12,0.57
			c0.44,0.76,0.88,1.58,1.4,2.48c0.06,0,0.06,0.06,0.06,0.06v0.06h0.07c0.5,0.95,1.01,1.78,1.46,2.48c0.12,0.25,0.31,0.25,0.51,0.19
			l9.08-3.81c0.38-0.19,0.76-0.13,1.08,0.07c0.83,1.26,1.65,2.47,2.54,3.68c0.07,0.45-0.07,0.76-0.38,1.08l-6.99,6.99
			c-0.12,0.12-0.26,0.24,0,0.57c0.45,0.63,1.02,1.39,1.66,2.28h0.06v0.07h0.07c0.63,0.89,1.2,1.58,1.78,2.28
			c0.18,0.25,0.37,0.19,0.51,0.07l8.57-4.89c0.38-0.25,0.7-0.25,1.14-0.07c0.95,1.08,1.9,2.22,2.86,3.3
			c0.12,0.38,0.07,0.76-0.19,1.08l-6.03,7.82c-0.06,0.11-0.19,0.3,0.07,0.56c0.57,0.64,1.2,1.33,1.97,2.03c0,0,0,0.06,0.07,0.06
			v0.06h0.06c0.77,0.77,1.4,1.41,2.04,1.98c0.26,0.26,0.45,0.13,0.57,0.06l7.81-6.03c0.31-0.25,0.7-0.31,1.08-0.19
			c1.08,0.96,2.23,1.98,3.3,2.86c0.19,0.43,0.19,0.82-0.07,1.14l-4.89,8.56c-0.13,0.13-0.19,0.32,0.07,0.58
			c0.7,0.51,1.46,1.08,2.28,1.72v0.06h0.07v0.06c0.89,0.63,1.65,1.2,2.35,1.71c0.25,0.2,0.38,0.07,0.51-0.06l6.99-6.99
			c0.31-0.31,0.63-0.44,1.08-0.38c1.2,0.9,2.42,1.71,3.68,2.54c0.19,0.31,0.26,0.7,0.07,1.08l-3.81,9.09
			c-0.06,0.18-0.06,0.37,0.19,0.56c0.7,0.45,1.53,0.89,2.47,1.46h0.07c0,0.07,0.06,0.07,0.06,0.07c0.89,0.51,1.72,0.95,2.47,1.4
			c0.32,0.13,0.45,0,0.57-0.13l5.91-7.81c0.25-0.37,0.51-0.5,0.95-0.5c1.34,0.7,2.73,1.39,4.07,2.03c0.25,0.31,0.31,0.63,0.19,1.02
			l-2.54,9.46c-0.07,0.19-0.07,0.38,0.25,0.5c0.76,0.33,1.59,0.7,2.61,1.15h0.07c0.07,0,0.07,0,0.07,0.06
			c0.95,0.39,1.84,0.76,2.67,1.01c0.31,0.13,0.45,0,0.51-0.19l4.95-8.43c0.13-0.38,0.39-0.57,0.77-0.64
			c1.45,0.58,2.91,1.08,4.44,1.53c0.25,0.25,0.32,0.56,0.25,0.94l-1.33,9.72c0,0.19,0,0.38,0.32,0.44c0.82,0.26,1.78,0.5,2.8,0.82
			h0.06h0.07c1.01,0.31,1.97,0.5,2.73,0.7c0.38,0.13,0.45-0.06,0.51-0.19l3.81-9.13c0.13-0.33,0.32-0.51,0.64-0.63
			c1.59,0.3,3.11,0.63,4.7,0.88c0.26,0.19,0.31,0.5,0.31,0.89v9.85c0,0.18,0,0.37,0.38,0.44c0.82,0.13,1.79,0.26,2.8,0.37h0.06h0.07
			h0.07c1.01,0.19,1.97,0.26,2.79,0.38c0.38,0,0.45-0.19,0.51-0.31l2.53-9.51c0.07-0.38,0.26-0.64,0.51-0.76
			c1.52,0.12,3.11,0.19,4.7,0.25c0.31,0.26,0.44,0.52,0.5,0.89l1.27,9.79c0,0.12,0.07,0.31,0.38,0.38h1.84h0.07h0.07h0.07h0.06h0.07
			h0.07h0.07h0.05h0.07h0.07h0.06h0.06h0.07h0.07h0.07h0.06h0.07h0.06h0.07h0.07h0.06h0.07H180h0.07h0.18h0.07h0.12h0.06h0.07h0.06
			h0.07h0.06h0.07h0.07h0.12h0.07h0.12h0.89h0.12h0.07h0.32c0.32-0.07,0.38-0.26,0.45-0.38l1.27-9.79c0-0.37,0.19-0.63,0.44-0.89
			c1.59-0.06,3.18-0.12,4.7-0.25c0.32,0.12,0.51,0.38,0.64,0.76l2.54,9.51c0,0.12,0.13,0.31,0.45,0.31
			c0.82-0.12,1.78-0.19,2.86-0.38H196h0.07c1.09-0.12,1.98-0.25,2.87-0.37c0.31-0.07,0.31-0.26,0.31-0.44v-9.85
			c0-0.38,0.12-0.7,0.38-0.89c1.53-0.25,3.1-0.58,4.63-0.88c0.32,0.12,0.57,0.3,0.7,0.63l3.75,9.13c0.06,0.13,0.19,0.32,0.51,0.19
			c0.82-0.19,1.71-0.38,2.79-0.7h0.07h0.07c1.01-0.32,1.9-0.57,2.73-0.82c0.32-0.06,0.32-0.25,0.32-0.44l-1.33-9.72
			c-0.08-0.38,0.06-0.7,0.25-0.94c1.53-0.45,2.98-0.96,4.44-1.53c0.39,0.07,0.64,0.25,0.83,0.64l4.89,8.43
			c0.12,0.19,0.26,0.32,0.57,0.19c0.76-0.25,1.65-0.62,2.67-1.01v-0.06h0.07c1.01-0.45,1.9-0.82,2.67-1.15
			c0.32-0.12,0.26-0.31,0.26-0.5l-2.61-9.46c-0.07-0.39-0.07-0.7,0.19-1.02c1.39-0.64,2.74-1.33,4.13-2.03c0.38,0,0.7,0.13,0.9,0.5
			l6.03,7.81c0.07,0.13,0.27,0.27,0.52,0.13c0.75-0.44,1.58-0.89,2.54-1.4v-0.07h0.07c0.95-0.57,1.77-1.02,2.47-1.46
			c0.32-0.19,0.26-0.38,0.19-0.56l-3.75-9.09c-0.19-0.38-0.19-0.76,0-1.08c1.27-0.83,2.55-1.64,3.75-2.54
			c0.38-0.06,0.76,0.07,1.03,0.38l6.98,6.99c0.12,0.13,0.25,0.26,0.56,0.06c0.7-0.51,1.46-1.08,2.29-1.71v-0.06h0.06
			c0,0,0-0.06,0.07-0.06c0.82-0.65,1.58-1.22,2.22-1.72c0.26-0.26,0.2-0.45,0.13-0.58l-4.96-8.56c-0.25-0.32-0.25-0.7-0.07-1.14
			c1.15-0.89,2.23-1.91,3.3-2.86c0.45-0.12,0.76-0.06,1.14,0.19l7.81,6.03c0.13,0.07,0.25,0.2,0.51-0.06
			c0.64-0.57,1.34-1.21,2.1-1.98v-0.06h0.07v-0.06c0.76-0.7,1.46-1.4,2.03-2.03c0.18-0.26,0.12-0.45,0-0.56l-5.98-7.82
			c-0.31-0.31-0.38-0.7-0.26-1.08c1.02-1.08,1.98-2.23,2.92-3.3c0.39-0.18,0.76-0.18,1.15,0.07l8.51,4.89
			c0.13,0.13,0.32,0.18,0.57-0.07c0.51-0.7,1.08-1.39,1.78-2.28v-0.07h0.06c0.63-0.89,1.21-1.64,1.71-2.28
			c0.2-0.33,0.07-0.45-0.06-0.57l-6.98-6.99c-0.33-0.32-0.39-0.63-0.33-1.08c0.83-1.2,1.65-2.42,2.48-3.68
			c0.37-0.2,0.69-0.26,1.08-0.07l9.14,3.81c0.13,0.06,0.33,0.06,0.52-0.19c0.44-0.7,0.89-1.52,1.46-2.48v-0.06h0.06v-0.06
			c0.51-0.9,1.02-1.72,1.4-2.48c0.19-0.32,0-0.45-0.12-0.57l-7.82-5.97c-0.31-0.26-0.5-0.5-0.5-0.95c0.7-1.34,1.39-2.72,2.02-4.06
			c0.32-0.25,0.64-0.31,1.02-0.19l9.53,2.54c0.19,0.07,0.38,0.07,0.51-0.2c0.38-0.81,0.77-1.64,1.15-2.66v-0.07l0.06-0.07
			c0.38-0.96,0.77-1.84,1.02-2.67c0.12-0.31,0-0.44-0.12-0.5l-8.58-4.95c-0.32-0.12-0.51-0.38-0.57-0.75
			c0.51-1.47,1.01-2.92,1.46-4.45c0.31-0.26,0.57-0.31,0.95-0.26l9.78,1.33c0.2,0,0.38,0,0.51-0.31c0.19-0.83,0.45-1.78,0.76-2.8
			v-0.07v-0.06c0.32-1.01,0.51-1.97,0.69-2.72c0.13-0.38-0.05-0.45-0.18-0.51l-9.15-3.81c-0.37-0.13-0.56-0.32-0.7-0.63
			c0.38-1.59,0.64-3.11,0.95-4.7c0.19-0.26,0.51-0.32,0.89-0.32h9.85c0.19,0,0.38,0,0.44-0.37c0.13-0.83,0.26-1.79,0.38-2.8v-0.07
			v-0.06v-0.07c0.19-1.01,0.26-1.97,0.38-2.8c0-0.38-0.19-0.43-0.31-0.51l-9.53-2.54c-0.38-0.06-0.63-0.24-0.76-0.56
			c0.12-1.6,0.18-3.12,0.25-4.7c0.26-0.32,0.51-0.45,0.89-0.51l9.78-1.26c0.13,0,0.32-0.07,0.39-0.39v-2.85v-0.07V180v-0.07v-2.86
			C304.7,176.76,304.51,176.7,304.38,176.7z"/>
		<path class="st0" d="M170.49,246.9c0,0.45-0.42,0.83-0.91,0.83h-8.98c-0.5,0-0.9-0.37-0.9-0.83v-1.81c0-0.45,0.41-0.84,0.9-0.84
			h8.98c0.51,0,0.91,0.39,0.91,0.84V246.9L170.49,246.9z M159.84,239.2c0-0.45,0.41-0.81,0.91-0.81h8.68c0.51,0,0.92,0.36,0.92,0.81
			v1.78c0,0.44-0.41,0.81-0.92,0.81h-8.68c-0.5,0-0.91-0.37-0.91-0.81V239.2L159.84,239.2z M173.44,242.98l-0.12-0.05l-0.3-0.11
			l0.29-0.13l0.11-0.06c0.71-0.34,1.17-1.11,1.17-1.95V238c0-1.15-1.04-2.14-2.22-2.14h-14.71c-1.17,0-2.12,0.95-2.12,2.14v2.68
			c0,0.83,0.46,1.6,1.16,1.95l0.12,0.06l0.28,0.14l-0.3,0.1l-0.11,0.05c-0.81,0.3-1.34,1.11-1.34,2.02v3.11
			c0,1.18,0.88,2.13,1.96,2.13h15.5c1.09,0,1.98-0.95,1.98-2.13v-3.11C174.78,244.09,174.24,243.28,173.44,242.98z"/>
		<path class="st0" d="M149.59,250.23h-4.56V239.4c-0.01-0.42-0.35-0.43-0.51-0.44c-0.23,0-0.49,0.06-0.73,0.11l-3.39,0.78v-2.6
			l3.57-0.91c0.16-0.03,0.31-0.08,0.48-0.12c0.61-0.17,1.25-0.34,1.83-0.35h2.74c0.36,0.01,0.55,0.22,0.55,0.6V250.23z"/>
		<path class="st0" d="M46.15,105.07c-1.12-1.23,1.15-4.79,2.29-2.57C48.6,103.99,47.17,105.44,46.15,105.07L46.15,105.07z
			 M69.85,88.37c-1.98,0.07-8.8,1.06-10.26,1.86c-3.48,1.88-4.86,3.71-7.01,6.96c-0.88,1.31-1.83,3.11-3.34,1.75
			c-1.12-1.01-2.21,0.53-3.5,0.14c-1.4-0.41-1.35-1.66-1.9-2.72c-0.78-1.53-2.61,0.13-3.65,0.32c-0.81-0.57-0.26-2.89-1.09-3.46
			c-2.67-0.03-3.27,1.64-2.66,3.82c0.64,2.31-1.51,3.64-1.35,5.84c0.73,0.71,1.84,0.48,2.61,0c1.01,0.45,1.38,1.61,1.72,2.56
			c0.53,1.58,1.24,0.73,2.49,0.68c6.4-0.28,1.95,7.63,1.1,10.72c-0.46,1.67-1.09,4.08-0.17,5.7c0.56,1,2.13,4.05,2.45,4.73
			c1.46,2.48,8.63,5.96,6.14,0.53c-1.63-3.53-4.92-5.68-4.29-9.92c0.74-4.97,1.65-8.63,3.71-13.2c1.7-3.76,5.25-6.91,8.41-9.39
			c1.57-1.22,3.19-2.24,5.24-2.27c2.06-0.02,4.26,0.7,6.24-0.16C71.65,91.61,70.81,89.31,69.85,88.37L69.85,88.37z M59.09,112.61
			c0,0.01,0,0.03-0.01,0.03c-0.2,2.73-2.64,2.84-2.92,1.96c-0.21-0.62,1.2-3.73,2.59-2.92c0.12,0.06,0.36,0.5,0.35,0.62
			c0,0.06,0,0.13-0.01,0.21C59.1,112.55,59.09,112.57,59.09,112.61L59.09,112.61z M54.11,111.26c-1.29-1.91,1.01-4.21,1.53-6.08
			c0.22-0.31,0.35-0.73,0.88-0.76c0.54-0.03,0.1-0.05,1.05,0.52C58.52,105.52,55.4,113.17,54.11,111.26L54.11,111.26z M63.8,97.88
			c0.81-0.16,3.29-0.04,3.73,0.58c2.1,2.57-0.43,4.84-0.72,7.28c-1.06,3.5-2.77,4.6-0.61,8.21c1.44,2.4-0.18,7.01-3.39,6.67
			c-1.08-0.86-0.07-3.21-0.81-3.82c-4.05-0.56-3.99,6.88-9.6,4.62c-0.1-0.03-0.35-0.32-0.38-0.43c-0.54-2.27,1.34-2.67,1.81-4.14
			c-0.75-1.16-2.52-0.99-3.21-2.22c-0.42-4.63,1.98-8.77,4.1-12.4c1-1.71,2.47-3.01,4.53-2.07c2.74,1.23,0.68,5.09,1.85,6.95
			c3.38-0.04,1.4-6.77,2.31-8.88C63.45,98.15,63.66,97.91,63.8,97.88L63.8,97.88z M41.28,91.36c-0.54,0.38-2.42,1.98-2.49,0.43
			c-0.11-2.24,1.69-3.88,2.66-5.73c1-1.93,2.42-3.6,4.8-2.71c1.67,0.64,3.49,2.17,4.83,3.32c1.22,1.08,1.57,3.39,1.62,4.95
			c0.09,2.31-0.9,7.07-4.22,5.97c-0.99-2.67,2.27-3.37,0.6-5.63c-2.08-0.17-1.29,1.9-3.38,1.72c-2.11-1.31,0.65-3.91-0.69-5.46
			c-1.08,0.04-1.75,0.76-2.19,1.69C42.38,90.86,42.06,90.82,41.28,91.36L41.28,91.36z M41.91,108.58c1.53,2.2-0.37,5.81-1.75,7.62
			c-1.48,1.96-5.62,0.69-7.55-0.07c-2.47-0.97-4.46-2.5-2.99-5.02c0.1-0.16,0.62-1.47,0.68-2.23c0.18-1.93,0.39-4.48,2.9-2.84
			c0.95,0.46-1.88,5.17-1.72,5.76c0.17,0.6,0.61,0.63,1.25,0.83c2.63-1.45,0.28-6.34,4.22-5.42c1.35,1.36-0.57,3.98,0.6,4.81
			c1.18,0.83,1.33-3.25,3.51-3.71C41.23,108.28,41.84,108.48,41.91,108.58z"/>
		<path class="st0" d="M247.13,37.25c-0.05-0.02-0.28-0.23-0.36-0.32c-1.76-2.05-5.45-3.47-8.15-3.65
			c-0.14-0.01-0.42-0.07-0.59-0.13c0,0-0.16-0.12-0.17-0.13c-0.56-0.62-1.42-3.05,0.56-2.42c2.18,0.69,2.17,0.84,3.77,1.42
			c1.46,0.52,3.84,1.28,5.12,1.9c0.05,0.02,0.09,0.05,0.13,0.06c0.1,0.05,0.18,0.1,0.26,0.14h-0.02c0.22,0.13,0.44,0.27,0.64,0.47
			C250.05,36.15,249.45,37.85,247.13,37.25L247.13,37.25z M240.96,43.02c0.44-2.6,3.75,0.2,2.96,1.92
			c-0.04,0.09-0.32,0.23-0.38,0.21c-0.45-0.14-0.77-0.43-1.08-0.74C242.03,43.96,240.95,43.12,240.96,43.02L240.96,43.02z
			 M245.01,50.57c-0.55,1.59-4.85-1.24-4.77-3.25c0.01-0.07,0.12-0.26,0.16-0.26C241.72,46.88,245.57,48.93,245.01,50.57
			L245.01,50.57z M241.73,57.57c1.14-1.54,1.13-3.24-0.37-4.48c-0.12-0.1-0.25-0.2-0.39-0.28c-0.62-0.44-1.29-0.66-1.92-0.99
			c-0.38-0.2-0.81-0.33-1.31-0.27c-1.41,0.16-2.57,1.07-2.54,2.58c0.06,2.66,3.64,3.87,5.95,3.77
			C241.26,57.9,241.65,57.67,241.73,57.57L241.73,57.57z M233.56,46.5c-0.66-0.29-3.04-1.55-2.75-2.55
			c0.29-0.78,1.62-1.27,4.25,0.49c0.11,0.07,0.29,0.56,0.27,0.72C235.21,46.21,235.02,47.18,233.56,46.5L233.56,46.5z M228.81,52.76
			c1.39,0.88,4.5,0.02,4.49-1.93c-0.03-3.31-5.18-3.68-6.63-1.24C226.33,50.32,227.4,51.86,228.81,52.76L228.81,52.76z
			 M234.43,40.59c0.5-1.35,2.54-0.6,2.82,0.56c0.02,0.09-0.17,0.33-0.26,0.33c-0.9,0.17-1.68,0.2-2.51-0.57
			C234.43,40.88,234.41,40.66,234.43,40.59L234.43,40.59z M220.34,46.45c0.51-0.48,1.35-1.08,2.89,0.2
			c0.07,0.06,0.27,0.41,0.29,0.51C224.14,51.7,217.11,49.69,220.34,46.45L220.34,46.45z M213.46,48.95
			c1.43,0.61,6.04-5.13,3.39-6.93C214.19,40.23,212.04,48.34,213.46,48.95L213.46,48.95z M252.6,33.29
			c-5.06-2.86-10.24-5.06-15.99-6.07c-2.8-0.5-5.51,5.58-2.7,7.22c1.12,0.65,5.52,0.46,5.35,2.33v0.01c-0.2,1.17-4.51-1.05-7.9,0.84
			c-0.21,0.11-0.36,0.22-0.47,0.31c-1.01,0.68-1.85,1.91-2.8,2.77c-0.96,0.9-2.35,2.9-3.88,2.64c-1.23-0.2-3.33-2.2-3.19-2.47
			c0.56-1.08,2.12-0.4,3.08-1.65c1.76-2.27,1.39-4.92,2.39-7.41c1.06-2.69,5.4-1.93,5.45-5.8c0.03-1.57-1.45-2.47-2.52-3.52
			l-1.34-0.96c-0.64-0.39-3.28-0.36-2.86,1.6c0.21,0.96,1.93,3.6,0.2,4.03c-2.35,0.59-5.61-0.46-7.89-1.04
			c-0.4-0.1-3.25-1.1-3.68-1.04c-0.36,0.05-0.66,0.15-0.85,0.33c-0.95,0.96-0.87,2.64-0.09,3.57c0.02,0.03,0.02,0.03,0.04,0.05
			c0.04,0.05,0.18,0.16,0.24,0.18c0.5,0.13,2.37,0.24,2.4,0.24c1.07-0.01,2.95,0.42,4.32,1.02v-0.01c1.49,0.7,2.3,1.23,0.69,1.73
			c-0.04,0.01-0.06,0.02-0.09,0.02c-0.01,0-0.01,0-0.02,0c-2.34,0.8-6.55-1.26-8.87-0.08c-0.08,0.04-0.24,0.16-0.27,0.22
			c-0.21,0.36-0.86,1.67-0.11,2.07c0.71,0.38,1.7,0.6,2.28,0.66c0.47,0.04,3.43-0.02,4.82-0.07c0.4-0.02,0.94-0.18,1.06-0.23
			c0.26-0.11,0.52-0.21,0.83-0.24c1-0.15,1.83,0.04,1.37,1.25c-0.57,1.51-6.05,3.02-7.49,2.67c-1.45-0.35-3.07,1.56-3.11,1.85
			c-0.26,1.34-0.13,2.81-0.75,4.22c-0.82,1.9-2.52,4.48-1.59,6.59c0.25,0.7,4.51,0.9,9.4,1.59c0.33,0.04,0.67,0.1,1,0.14
			c3.1,0.47,6.35,1.16,8.93,2.27c1,0.43,1.83,0.76,2.52,1.03c3.56,1.8,7.22,4.08,7.8,4.74c2.82,3.28,7.2,8.66,8.88,6.36
			c-0.12-2.3-1.44-3.98-2.42-5.94c-0.4-0.84,0.71-1.2,1.15-1.77c1.64-2.13,2.07-5.35,2.62-7.91c0.47-2.12,0.77-4.29,1.32-6.39
			c0.64-2.43-2.66-4.07-4.81-4.68c-0.28-0.09-0.8-0.62-0.75-0.79c0.4-1.73,3.55-0.33,5.51,0.91c0.76,0.48,2.7,0.37,3.11-0.32
			c0.61-1.06,1.01-2.37,1.54-3.2C255.76,35.17,254.23,34.22,252.6,33.29z"/>
		<path class="st0" d="M319.29,103.52c-0.16,2.76-3.1,4.63-5.41,5.92c-2.27,1.27-5.27-1.71-5.78-3.6c-0.26-0.91-0.49-3.8,0.32-4.46
			c0.95-0.76,2.31-0.16,3.26-0.96c0.09-0.06,0.19-0.49,0.17-0.61c-0.32-2.72,3.81-1.01,5.98,0.71
			C318.5,101.03,319.32,103.01,319.29,103.52L319.29,103.52z M324.89,121.31c-0.18-0.78-0.77-2.88-0.83-4.25v0.02
			c-0.08-3.6-0.94-6.72-1.42-10.27c-0.21-1.54-1.05-7.28,1.64-7.22c0.16,0,0.65-0.59,0.67-0.77c0.24-2.82-1.59-3.94-4.1-2.92
			c-1.39,0.57-2.19,0.76-3.52-0.1c-0.28-0.19-3-1.73-5.48-3.39c-1.58-1.03-6.38-4.7-6.38-4.7c-2.18-1.3-4.37-4.62-5.66-0.84
			c1.68,3.37,5.46,4.57,8.05,6.92c1.27,1.12,2.14,3.56-0.45,2.69c-2.54-0.9-5.44-4.03-6.99-4.92c-1.45-0.85-4.82-1.17-3.66,1.49
			c0.69,1.58,1.95,2.97,3.52,3.71c0.87,0.4,3.93,1.39,4.11,2.09c0.47,0.97,0.27,3.41-0.43,4.27c-1.13,1.39-4.18-0.83-5.64-1.98
			c-0.08-0.07-0.72-0.48-1.59-1c-0.95-0.58-3.06-1.56-4.47-2.21c-0.71-0.32-2.21-0.85-2.65-0.98c-1.54-0.46-6.44-1.67-5.47,1.8
			c0.02,0.05,0.14,0.23,0.3,0.35c0.5,0.35,1.68,1.12,3.03,1.86c1.28,0.71,7.16,2.52,9.32,3.68c2.03,1.1,4.38,1.65,6.1,3.27
			c0.72,0.68,0.99,1.28,1.14,1.91c0.15,0.62,0.9,4.41,0.9,5.75c0,3.44-0.88,7.49-1.68,10.09c-0.83,2.68-3.21,7.12,1.14,7.27
			c4.32,0.17,4.17-14.07,4.42-17.2c0.08-0.95,0.41-5.24,2.28-3.67c3.14,2.63,2.32,6.89,2.7,10.4c0.11,1.01,0.99,1.28,1.86,1.55
			c0.28,0.09,1.41,0.04,1.55-0.17c0.72-1.15,0.82-2.59,0.74-3.91c-0.12-2.28-1.21-5.47-0.31-7.76c0.63-1.31,1.61-1.75,2.08-0.16
			c0.01,0.08,0.03,0.13,0.06,0.18c0.12,0.48,0.33,1.98,0.32,2.3c-0.06,2.57,0.92,9.38,1.06,9.56c1.01,1.33,2.87,2.07,4.17,0.3
			C325.75,123.82,325.06,122.1,324.89,121.31z"/>
		<path class="st0" d="M195.33,241.23c0,0.46-0.41,0.83-0.92,0.83h-8.87c-0.51,0-0.91-0.38-0.91-0.83v-2.04
			c0-0.45,0.41-0.81,0.91-0.81l0,0h8.87c0.49,0,0.92,0.38,0.92,0.81V241.23L195.33,241.23z M197.74,235.87h-15.51
			c-1.09,0-1.97,0.95-1.97,2.14v4.53c0,1.16,0.88,2.12,1.97,2.12l6.09,0.01h6.1c0.49,0,0.92,0.37,0.92,0.82v1.43
			c0,0.44-0.41,0.81-0.92,0.81h-8.88c-0.36,0-0.66-0.19-0.81-0.46h-4.47v0.86c0,1.16,0.88,2.11,1.97,2.11h15.51
			c1.08,0,1.96-0.95,1.96-2.13V238C199.7,236.82,198.82,235.87,197.74,235.87z"/>
		<path class="st0" d="M209.56,244.87c0-0.45,0.4-0.83,0.9-0.83h8.88c0.51,0,0.92,0.38,0.92,0.83v2.04c0,0.45-0.41,0.81-0.92,0.81
			v-0.01h-8.88c-0.49,0-0.9-0.38-0.9-0.82V244.87L209.56,244.87z M207.15,250.24h15.51c1.08,0,1.96-0.95,1.96-2.13v-4.53
			c0-1.17-0.88-2.13-1.96-2.13h-6.09h-6.11c-0.49,0-0.9-0.38-0.9-0.83v-1.42c0-0.45,0.4-0.81,0.9-0.81h8.89
			c0.36,0,0.66,0.18,0.81,0.46h4.46v-0.85c0-1.17-0.88-2.12-1.96-2.12h-15.51c-1.08,0-1.97,0.95-1.97,2.14v10.1
			C205.18,249.29,206.07,250.24,207.15,250.24z"/>
		<g>
			<path class="st0" d="M21.9,186.42c-0.06-1.08,0.03-3.61,0.07-5.33c1.03,0.13,2.27,0.22,3.53,0.25l0.01,0.15
				c-1.11,1.35-1.83,3.19-1.73,5.18c0.08,1.73,0.99,2.84,2.5,2.76c1.09-0.05,1.72-0.53,2.45-1.56c1.08-1.53,1.71-3.33,2.98-4.99
				c1.43-1.84,2.85-2.29,4.59-2.37c1.71-0.09,5.08,0.72,5.37,7.15c0.06,1.2,0.09,3.1-0.01,4.7c-0.9-0.2-2.2-0.41-3.4-0.57
				l-0.01-0.15c0.93-0.85,1.66-1.85,1.55-4.1c-0.1-2.13-1.32-3.13-2.58-3.07c-1.52,0.07-2.37,0.33-4.17,4.01
				c-2.26,4.62-3.68,4.8-5.48,4.89C25.41,193.47,22.18,192.42,21.9,186.42z"/>
			<path class="st0" d="M34.8,211.83c-2.23,0.34-7.3,1.28-9.4,2.06c-0.11-1.14-0.18-1.55-0.31-2.39c-0.11-0.64-0.21-1.24-0.53-2.65
				c2.7-0.21,6.72-0.76,8.81-1.11c-0.18-1.41-0.26-2.09-0.44-3.16c-0.18-1.07-0.38-2.1-0.63-3.28c-3.13,0.55-5.84,1.04-8.69,1.85
				c-0.09-1.09-0.23-1.92-0.31-2.39c-0.11-0.68-0.2-1.25-0.52-2.63c2.68-0.14,7.39-0.81,9.5-1.15c2.07-0.35,8.84-1.3,9.47-2.37
				l0.11-0.03c0.13,1.17,0.24,1.91,0.37,2.75c0.14,0.86,0.31,1.71,0.52,2.6c-1.92-0.05-4.68,0.41-8.27,1.01
				c0.17,1.53,0.27,2.15,0.46,3.24c0.18,1.07,0.26,1.58,0.62,3.19c4.31-0.74,6.3-1.02,8.01-2.1l0.09,0.01
				c0.07,0.96,0.19,1.65,0.37,2.74c0.14,0.83,0.35,1.93,0.52,2.62C41.99,210.75,37.4,211.42,34.8,211.83z"/>
			<path class="st0" d="M43.29,220.98l-0.03-0.11c-2.48-0.09-4.64-0.09-6.93-0.05c0.16,0.73,0.3,1.29,0.51,1.96
				c0.29,0.95,0.44,1.33,0.71,2.01C39.46,223.6,41.47,222.25,43.29,220.98L43.29,220.98z M30.64,231.74
				c-0.28-0.89-0.52-1.66-0.89-2.58c1.97-0.7,4.79-2.44,6.12-3.29c-0.22-0.91-0.45-1.78-0.71-2.62c-0.26-0.83-0.59-1.74-0.82-2.36
				c-1.62,0-5.09,0.18-6.82,1.03c-0.27-0.99-0.36-1.47-0.58-2.18c-0.24-0.78-0.47-1.46-0.78-2.24c1.19,0.27,3.33,0.51,4.23,0.59
				c1.87,0.14,4.5,0.32,6.56,0.41c1.86,0.09,4.84,0.18,7.16,0.2c0.67,0.01,1.76,0.06,2.35-0.35l0.16-0.05
				c0.29,0.91,0.53,1.63,0.74,2.2c0.28,0.82,0.59,1.61,0.94,2.45c-0.55,0.26-1.57,0.85-2.45,1.41c-1.76,1.1-3.93,2.52-5.56,3.63
				c-2.75,1.85-4.31,2.93-5.68,3.95c-0.59,0.43-2.01,1.52-3.18,2.73C31.12,233.42,30.89,232.57,30.64,231.74z"/>
			<path class="st0" d="M47.35,247.6c-1.2,0.54-6.17,2.76-8.27,3.95c-0.49-1.17-1.07-2.23-1.69-3.17c1.52-2.32,4.46-6.43,5.78-8.22
				l3.99-5.45l-0.04-0.09l-5.07,2.32c-0.96,0.44-6.06,3.12-7.72,4.41c-0.25-0.68-0.47-1.24-0.76-1.87c-0.27-0.6-0.61-1.28-0.92-1.83
				c2.81-0.52,9.68-3.56,11-4.16c1.01-0.46,5.2-2.24,6.59-3.7l0.13-0.06c0.3,0.79,0.67,1.67,1.07,2.55c0.41,0.91,0.82,1.75,1.2,2.43
				c-1,1.12-3.21,3.78-4.26,5.29c-2.05,2.94-3.38,4.74-4.51,6.38l0.04,0.09l3.38-1.54c1.95-0.89,6.96-3.51,7.92-4.57
				c0.17,0.51,0.51,1.32,0.78,1.92c0.37,0.82,0.41,0.9,0.88,1.75C54.41,244.58,48.73,246.96,47.35,247.6z"/>
			<path class="st0" d="M53.93,267.63c-0.67,0.38-2.01,1.16-3.3,2.15c-1.91-2.06-2.97-3.46-4.33-5.62
				c-3.31-5.24-2.68-9.33,3.42-13.18c3.75-2.37,9.15-3.8,13.68,3.37c1.24,1.96,2.56,4.32,3.17,5.49c-1.34,0.35-2.39,0.77-3.63,1.34
				l-0.11-0.19c0.48-1.59,0.2-3.75-1.15-5.89c-2.11-3.32-5.57-2.8-9.52-0.31c-5.52,3.48-5.54,6.07-3.61,9.14
				c0.88,1.39,1.73,1.07,2.48,0.6l1.74-1.1c0.8-0.5,1.77-1.12,2.41-2.35l0.14-0.05c0.4,0.74,0.89,1.57,1.36,2.31
				c0.61,0.96,0.79,1.25,1.42,2.09C57.15,265.81,55.2,266.86,53.93,267.63z"/>
			<path class="st0" d="M70.84,280.17c-1.75,1.44-5.62,4.84-7.03,6.59c-0.68-0.93-0.95-1.25-1.49-1.9c-0.43-0.5-0.82-0.96-1.82-2.01
				c2.21-1.55,5.4-4.08,7.01-5.45c-0.87-1.12-1.29-1.66-1.99-2.49c-0.7-0.83-1.4-1.61-2.22-2.49c-2.41,2.07-4.48,3.88-6.53,6.03
				c-0.63-0.89-1.17-1.53-1.48-1.9c-0.45-0.53-0.82-0.96-1.8-1.99c2.23-1.48,5.93-4.46,7.58-5.84c1.59-1.34,6.93-5.63,6.93-6.88
				l0.09-0.08c0.71,0.94,1.18,1.53,1.72,2.17c0.56,0.67,1.15,1.32,1.77,1.97c-1.68,0.94-3.82,2.76-6.59,5.1
				c0.93,1.23,1.33,1.71,2.05,2.56c0.7,0.83,1.03,1.22,2.16,2.43c3.33-2.86,4.9-4.1,5.81-5.9l0.08-0.04c0.56,0.79,1,1.32,1.72,2.18
				c0.54,0.64,1.28,1.47,1.79,1.98C76.47,275.56,72.87,278.5,70.84,280.17z"/>
			<path class="st0" d="M82.82,283.72l-0.09-0.09c-2.18,1.2-4.03,2.29-5.98,3.5c0.52,0.54,0.92,0.96,1.43,1.42
				c0.73,0.68,1.07,0.92,1.64,1.38C80.87,287.93,81.91,285.75,82.82,283.72L82.82,283.72z M77.43,299.43
				c-0.69-0.62-1.29-1.16-2.08-1.77c1.34-1.61,2.87-4.55,3.58-5.95c-0.65-0.67-1.3-1.3-1.95-1.88c-0.64-0.59-1.39-1.19-1.9-1.62
				c-1.4,0.82-4.29,2.76-5.34,4.36c-0.74-0.71-1.05-1.08-1.62-1.58c-0.6-0.55-1.15-1.01-1.81-1.53c1.16-0.38,3.13-1.25,3.94-1.65
				c1.69-0.83,4.03-2.02,5.85-3c1.64-0.87,4.26-2.32,6.25-3.49c0.59-0.32,1.54-0.83,1.85-1.49l0.12-0.13
				c0.7,0.65,1.29,1.14,1.75,1.52c0.66,0.56,1.33,1.09,2.05,1.63c-0.34,0.5-0.9,1.54-1.38,2.46c-0.95,1.85-2.09,4.18-2.94,5.96
				c-1.42,3-2.22,4.71-2.87,6.29c-0.28,0.67-0.95,2.34-1.33,3.97C78.71,300.63,78.08,300.02,77.43,299.43z"/>
			<path class="st0" d="M84.62,305.03c-0.72-0.53-1.22-0.88-2.27-1.59c2.33-2.39,4.81-5.65,6.16-7.46c1.94-2.59,4.71-6.09,5.13-8.2
				l0.06-0.08c0.71,0.61,1.32,1.1,2.01,1.63c0.7,0.52,1.51,1.06,2.37,1.65c-1.83,1.75-5.05,6.09-5.71,6.97
				c-1.08,1.45-4.2,5.55-5.84,8.64C85.52,305.74,85.06,305.35,84.62,305.03z"/>
			<path class="st0" d="M107.17,308.02c-1.34,2.31-2.81,4.92-3.36,5.86c-1.64,2.83-4.21,4.05-10.42,1.31l0.6-1.73
				c2.52,1.1,4.04,1.12,5.74-1.34c0.62-0.89,2.02-3.26,3.06-5.05c1.79-3.09,4.72-7.62,4.75-9.72l0.08-0.12
				c0.88,0.57,1.65,1.06,2.38,1.47c0.73,0.42,1.44,0.8,2.33,1.25C110.45,302.12,108.24,306.17,107.17,308.02z"/>
			<path class="st0" d="M111.93,321.56c-1.16-0.64-1.69-0.93-2.18-1.17c-0.81-0.4-1.36-0.65-2.52-1.15
				c1.84-2.79,3.67-6.45,4.67-8.49c1.43-2.9,3.5-6.85,3.53-9.01l0.03-0.08c0.81,0.47,1.5,0.83,2.28,1.22
				c0.78,0.39,1.67,0.75,2.63,1.19c-1.48,2.06-3.84,6.92-4.32,7.9C115.27,313.6,112.97,318.22,111.93,321.56L111.93,321.56z"/>
			<path class="st0" d="M128.1,311.73l-0.11-0.04c-1.59,1.9-2.91,3.61-4.28,5.45c0.68,0.31,1.2,0.54,1.85,0.79
				c0.93,0.35,1.33,0.47,2.03,0.68C127.82,316.37,128,313.96,128.1,311.73L128.1,311.73z M128.85,328.34
				c-0.87-0.33-1.63-0.61-2.59-0.89c0.66-1.99,1.01-5.28,1.15-6.85c-0.85-0.38-1.69-0.73-2.5-1.04c-0.82-0.3-1.74-0.59-2.36-0.8
				c-1,1.27-2.98,4.13-3.37,6.01c-0.95-0.39-1.37-0.62-2.07-0.89c-0.76-0.28-1.45-0.51-2.25-0.75c0.94-0.78,2.45-2.32,3.06-2.98
				c1.26-1.38,3.01-3.35,4.34-4.92c1.21-1.42,3.12-3.72,4.55-5.54c0.42-0.51,1.12-1.35,1.17-2.07l0.06-0.17
				c0.9,0.35,1.61,0.59,2.19,0.78c0.82,0.29,1.63,0.52,2.5,0.76c-0.13,0.59-0.28,1.76-0.38,2.79c-0.2,2.07-0.41,4.65-0.55,6.62
				c-0.23,3.31-0.33,5.2-0.36,6.91c-0.02,0.72-0.03,2.53,0.21,4.18C130.47,328.98,129.66,328.65,128.85,328.34z"/>
			<path class="st0" d="M140.66,322.09c-1.03,4.4-0.55,7.72,2.79,8.51c3.92,0.91,5.5-2.77,6.39-6.56c0.84-3.57,1.18-7.89-2.63-8.79
				C143.37,314.35,141.64,317.94,140.66,322.09L140.66,322.09z M154.3,325.03c-1.02,4.35-3.48,9.3-11.29,7.47
				c-4.75-1.11-8.67-3.48-6.79-11.48c1.1-4.66,3.54-9.52,11.32-7.69C154.21,314.9,155.75,318.87,154.3,325.03z"/>
			<path class="st0" d="M178.83,319.96l-0.18-0.01c-0.64-0.34-2.66-0.86-5.16-1c-0.03,0.61-0.33,4.47-0.56,8.6
				c-0.22,4.06-0.07,8.22,0.05,8.89c-1.19-0.13-1.52-0.17-2.57-0.23c-0.9-0.06-1.56-0.09-2.68-0.07c0.56-2.49,0.91-7.81,1.02-9.75
				c0.11-2.06,0.26-5.78,0.33-7.7c-2.1-0.11-4.82-0.04-5.62,0.41l-0.18-0.01c0.23-0.81,0.47-1.98,0.51-2.73
				c2.78,0.33,5.06,0.49,7.61,0.63c2.76,0.15,5.44,0.3,8.17,0.25C179.28,317.88,179.03,319,178.83,319.96z"/>
			<path class="st0" d="M184.28,327.08c0.3,4.51,1.73,7.54,5.15,7.32c4.02-0.26,4.45-4.25,4.2-8.13c-0.24-3.66-1.18-7.91-5.08-7.65
				C184.61,318.87,184,322.82,184.28,327.08L184.28,327.08z M198.18,325.91c0.3,4.46-0.62,9.91-8.62,10.44
				c-4.86,0.32-9.31-0.81-9.84-9.01c-0.3-4.77,0.6-10.13,8.59-10.66C195.14,316.24,197.77,319.6,198.18,325.91z"/>
			<path class="st0" d="M216.48,322.8c0.26,1.3,1.28,6.63,1.97,8.95c-1.24,0.23-2.4,0.55-3.46,0.94c-1.91-2.01-5.26-5.8-6.71-7.49
				l-4.41-5.12l-0.09,0.02l1.11,5.47c0.22,1.03,1.68,6.61,2.56,8.5c-0.72,0.09-1.32,0.19-1.99,0.32c-0.65,0.13-1.38,0.31-1.99,0.49
				c0.12-2.87-1.28-10.23-1.58-11.66c-0.22-1.09-1.01-5.58-2.12-7.25l-0.03-0.14c0.84-0.11,1.79-0.28,2.73-0.47
				c0.97-0.19,1.88-0.41,2.63-0.62c0.86,1.23,2.96,3.99,4.18,5.34c2.42,2.67,3.86,4.36,5.21,5.84l0.08-0.02l-0.73-3.65
				c-0.43-2.1-1.85-7.57-2.67-8.75c0.54-0.05,1.4-0.2,2.05-0.32c0.89-0.18,0.98-0.21,1.9-0.49
				C215.12,315.24,216.18,321.32,216.48,322.8z"/>
			<path class="st0" d="M237.48,320.99c0.22,0.73,0.66,2.22,1.34,3.7c-2.45,1.4-4.05,2.1-6.47,2.93c-5.85,2.02-9.69,0.47-12.04-6.35
				c-1.46-4.19-1.6-9.78,6.42-12.55c2.19-0.75,4.79-1.5,6.08-1.82c0.03,1.38,0.19,2.51,0.46,3.83l-0.2,0.08
				c-1.43-0.84-3.61-1.06-6-0.25c-3.72,1.3-4.01,4.79-2.49,9.2c2.13,6.17,4.63,6.78,8.07,5.6c1.56-0.54,1.45-1.44,1.15-2.28
				l-0.67-1.94c-0.3-0.89-0.68-1.97-1.73-2.88l-0.02-0.15c0.81-0.22,1.73-0.51,2.56-0.79c1.08-0.37,1.39-0.48,2.36-0.9
				C236.45,317.43,237.02,319.56,237.48,320.99z"/>
			<path class="st0" d="M258.5,300.27c1.03,1.93,2.24,4.23,3.33,6.15c1.79,3.13,1.8,6.3-3.42,9.27c-5.48,3.13-7.91,1.78-9.9-1.69
				c-0.51-0.89-1.82-3.31-2.75-4.93c-0.65-1.14-2.82-5.24-4.32-6.1l-0.04-0.07c0.71-0.34,1.58-0.8,2.37-1.25
				c0.77-0.45,1.4-0.81,2.38-1.46c0.75,2.4,3.33,6.86,4,8.03c1.66,2.9,2.77,4.79,3.48,5.43c1,0.91,2.57,1.06,4.09,0.2
				c3.58-2.04,2.6-4.29,0.44-8.07c-3.02-5.29-4.08-7.33-6.04-9.01c0.57-0.27,1.08-0.53,1.99-1.05c0.81-0.47,1.24-0.74,1.84-1.15
				C256.68,297.03,257.88,299.12,258.5,300.27z"/>
			<path class="st0" d="M275.98,292.19c0.8,1.04,4.06,5.39,5.69,7.18c-1.02,0.74-1.93,1.54-2.7,2.36c-2.6-0.97-7.26-2.91-9.3-3.8
				l-6.22-2.66l-0.07,0.05l3.4,4.43c0.64,0.84,4.4,5.21,6.02,6.53c-0.61,0.4-1.1,0.73-1.66,1.16c-0.52,0.4-1.1,0.88-1.57,1.31
				c-1.14-2.63-5.63-8.63-6.51-9.79c-0.68-0.89-3.36-4.57-5.09-5.59l-0.09-0.11c0.71-0.47,1.49-1.03,2.25-1.62
				c0.79-0.6,1.51-1.19,2.09-1.71c1.32,0.72,4.4,2.28,6.1,2.97c3.34,1.34,5.38,2.23,7.23,2.97l0.07-0.05l-2.27-2.96
				c-1.31-1.7-4.97-6.01-6.23-6.7c0.46-0.29,1.17-0.79,1.7-1.2c0.71-0.54,0.78-0.6,1.49-1.26
				C271.46,285.99,275.06,290.98,275.98,292.19z"/>
			<path class="st0" d="M287.81,293.71c-0.66,0.61-1.08,1.05-1.96,1.94c-1.96-2.7-4.74-5.71-6.28-7.36
				c-2.2-2.37-5.17-5.71-7.18-6.49l-0.06-0.06c0.72-0.6,1.31-1.11,1.94-1.71c0.64-0.6,1.31-1.29,2.06-2.03
				c1.39,2.11,5.11,6.04,5.86,6.83c1.23,1.32,4.73,5.1,7.49,7.26C288.67,292.95,288.21,293.34,287.81,293.71z"/>
			<path class="st0" d="M290.56,267.76c0.9,1.6,2.33,4.04,3.57,6.19c1.24,2.15,3.68,6.42,4.78,8.24c-0.74,0.79-1.46,1.72-2.07,2.66
				c-3.06-1.43-6.17-2.79-9.39-4.18c-2.51-1.06-4.88-2.08-6.56-2.74c-1.03-0.4-2.46-0.86-3.16-0.85l-0.08-0.07
				c0.64-0.6,1.32-1.32,1.96-2.08c0.68-0.77,1.32-1.52,1.88-2.23c0.6,0.53,1.68,1.17,2.44,1.61c1.25,0.71,3.48,1.73,5.9,2.8
				c1.79,0.79,3.06,1.4,4.57,1.98l0.08-0.09c-0.75-1.35-2.38-3.97-3.18-5.21c-2.01-3.04-3.58-5.28-5.19-6.28
				c0.54-0.52,0.98-0.97,1.51-1.54c0.5-0.57,0.89-1.01,1.37-1.68C289.4,265.56,290.03,266.8,290.56,267.76z"/>
			<path class="st0" d="M312.78,264.09c-1.76,2.29-2.77,3.78-3.88,5.35c-1.18,1.67-1.53,2.16-3.35,4.88
				c-2.21-2.07-4.49-3.72-7.55-5.89c-3.16-2.23-7.02-5.15-8.39-5.04l-0.07-0.05c1.27-1.65,2.87-3.91,3.77-5.19
				c0.73-1.03,1.98-2.84,3.57-5.2c0.36,0.57,1.33,1.49,1.91,1.9l-0.07,0.1c-1.29,0.93-2.93,2.9-4.65,5.33
				c1.4,1.26,4.01,3.02,5.24,3.89c1.09-1.55,1.94-2.78,2.79-4.55c0.54,0.57,1.31,1.27,2.02,1.81c-1.53,1.27-2.45,2.62-3.28,3.79
				l2.79,1.96c2.64,1.87,3.26,1.83,4.29,0.39c1.3-1.84,2.39-3.87,2.65-5.53l0.1-0.15C311.39,262.88,312.03,263.45,312.78,264.09z"/>
			<path class="st0" d="M303.11,245.62c-0.43,0.78-0.71,1.35-0.91,1.89c1.13,0.75,2.61,1.56,3.04,1.79c1.1,0.6,1.72,0.97,2.75,1.54
				c0.37-0.63,0.6-0.98,0.84-1.43c0.93-1.71,0.83-3.31-1.79-4.73C304.83,243.47,303.7,244.52,303.11,245.62L303.11,245.62z
				 M321.46,248.54c-0.43,0.8-0.73,1.46-1.24,2.45c-1.48-0.5-3.11-0.87-4.94-1.22c-1.83-0.34-3.19-0.54-3.92-0.22
				c-0.73,0.32-1.12,1.1-1.68,2.2c1.41,0.7,6.12,3.2,8.09,3.76c-0.45,0.71-0.92,1.52-1.35,2.31c-0.43,0.79-0.81,1.54-1.14,2.28
				c-2.24-1.7-6.93-4.22-8.41-5.02c-2.54-1.39-7.15-4-8.68-4.01l-0.07-0.05c0.77-1.35,1.34-2.41,2.08-3.76
				c0.85-1.56,1.45-2.73,2.36-4.39c1.87-3.44,4.18-3.51,6.27-2.37c2.16,1.17,3.34,3.5,2.26,6.33l0.05,0.02
				c0.81-1.37,1.89-1.74,3.18-1.59c0.89,0.11,1.16,0.15,2.72,0.39c2.02,0.31,4.47,0.72,5.69,0.39l0.15,0.09
				C322.23,247.18,321.8,247.92,321.46,248.54z"/>
			<path class="st0" d="M325.91,238.98c-0.4,1-1.54,3.27-2.29,4.82c-0.89-0.56-1.97-1.16-3.11-1.72l0.06-0.13
				c1.57-0.76,2.99-2.13,3.74-3.97c0.66-1.61,0.29-3-1.12-3.57c-1.01-0.41-1.79-0.24-2.87,0.4c-1.61,0.94-2.94,2.31-4.79,3.28
				c-2.08,1.08-3.55,0.9-5.17,0.24c-1.59-0.65-4.31-2.78-1.89-8.75c0.45-1.11,1.22-2.85,1.97-4.26c0.73,0.56,1.82,1.29,2.86,1.93
				l-0.05,0.14c-1.21,0.39-2.28,0.99-3.13,3.08c-0.8,1.98-0.11,3.39,1.06,3.86c1.4,0.57,2.28,0.7,5.47-1.9
				c3.97-3.25,5.35-2.83,7.02-2.14C325.68,231.1,328.17,233.41,325.91,238.98z"/>
			<path class="st0" d="M330.51,225.62c-0.27,0.87-0.42,1.45-0.74,2.67c-3.05-1.39-6.95-2.63-9.11-3.31
				c-3.08-0.96-7.31-2.4-9.45-2.09l-0.08-0.03c0.33-0.87,0.59-1.61,0.85-2.44c0.26-0.83,0.49-1.76,0.78-2.77
				c2.25,1.14,7.42,2.71,8.46,3.04c1.73,0.53,6.64,2.1,10.1,2.61C330.88,224.53,330.67,225.1,330.51,225.62z"/>
			<path class="st0" d="M319.13,202.01l-0.04,0.17c-0.45,0.58-1.28,2.49-1.81,4.93c0.59,0.13,4.37,1.05,8.4,1.93
				c3.97,0.87,8.11,1.38,8.78,1.36c-0.31,1.17-0.41,1.48-0.63,2.51c-0.2,0.88-0.34,1.52-0.49,2.63c-2.37-0.95-7.57-2.15-9.46-2.56
				c-2.02-0.44-5.66-1.18-7.54-1.56c-0.45,2.06-0.81,4.75-0.5,5.62l-0.04,0.17c-0.77-0.35-1.88-0.77-2.61-0.94
				c0.77-2.7,1.28-4.92,1.83-7.42c0.59-2.7,1.16-5.32,1.55-8.03C317.16,201.24,318.22,201.66,319.13,202.01z"/>
			<path class="st0" d="M320.59,182.72c1.49,1.17,3.05,2.27,8.56,5.77c1.88,0.13,2.91,0.21,4.29,0.23c1.29,0.01,2.9,0,3.83-0.17
				c-0.17,1.08-0.22,1.79-0.28,2.61c-0.07,0.84-0.1,1.28-0.11,2.67c-0.84-0.3-2.71-0.63-3.68-0.7c-1.37-0.1-2.42-0.27-4.3-0.41
				c-4.59,1.91-8.54,3.91-9.52,4.41c-0.63,0.3-1.78,1.03-2.21,1.52l-0.11-0.02c0.13-1.02,0.23-1.99,0.31-3.02
				c0.08-1.02,0.12-2.07,0.15-3.22c0.71,0.03,1.45-0.13,2.06-0.36c1.53-0.55,3.65-1.2,7.01-2.7l0.01-0.09
				c-1.81-1.13-4.46-2.47-6.02-3.19c-0.75-0.36-1.82-0.66-2.53-0.65c0.11-0.74,0.17-1.25,0.25-2.3c0.06-0.78,0.11-1.53,0.09-2.22
				C319.13,181.65,320.16,182.43,320.59,182.72z"/>
		</g>
	</g>
</g>
</svg>
