<svg height="512" width="512" xmlns="http://www.w3.org/2000/svg"><path d="m19.3160725 346.6036682.000103-176.7707062c.0000076-12.02948 9.7518291-21.7812805 21.7813015-21.7812653l429.8051758.0001831c12.02948 0 21.7812805 9.7518158 21.7812805 21.7812958l-.0000916 176.7707062c-.0000305 12.02948-9.7518311 21.7812805-21.781311 21.7812805l-429.8051758-.0001831c-12.0294819-.0000305-21.7812901-9.751831-21.7812824-21.781311zm448.7441997-154.6035614c0-10.6860657-8.6627502-19.3488312-19.3488159-19.3488464-10.6860962 0-19.3488464 8.6627655-19.348877 19.3488312 0 10.6860657 8.6627808 19.3488312 19.3488464 19.3488464 10.6860658 0 19.3488465-8.6627655 19.3488465-19.3488312zm-12.0964355-52.2978668v-48.9112396l-68.956604-.0000839-.0000305 48.9112473zm-68.9565735 238.4076843-.0000305 43.8434143 68.9566345.0001221v-43.8434143zm53.4550171-296.9935226-4.344635-81.1162567-28.519928-.0000167-5.0889282 81.1162567zm-37.9536743 349.7673263 5.0888062 81.1162415 28.5199279.0000305 4.3447266-81.1162415zm-55.8157044-291.1816101.0000305-48.9112473-68.9566345-.0000763v48.9112473zm-68.9565735 238.4076538-.0000305 43.8434143 68.9566345.0000916.0000305-43.8434143zm53.4550476-296.9934311-4.344635-81.1162643-28.5199585-.0000167-5.0888977 81.1162567zm-37.9537048 349.7673264 5.0888062 81.1162415 28.5199585.0000305 4.3447266-81.1162415zm-55.8156738-291.1816712.0000305-48.9112473-68.9566345-.0000839-.0000153 48.9112396zm-68.9565735 238.4075928-.0000305 43.8434143 68.9566345.0001221.0000305-43.8434143zm53.4550323-296.993309-4.3446198-81.1162643-28.5199584-.0000153-5.088913 81.1162567zm-37.9536895 349.7673264 5.0888062 81.1162415 28.5199585.0000305 4.3447266-81.116272zm-55.8156739-291.1816102.0000153-48.9112473-68.9566269-.0000839-.0000229 48.9112396zm-68.9565811 238.4075928-.0000267 43.8434143 68.9566345.0001221.0000153-43.8434143zm53.4550324-296.993309-4.3446274-81.1162643-28.5199509-.0000153-5.088913 81.1162567zm-37.9536896 349.7673264 5.0888138 81.1162415 28.5199509.0000305 4.3447266-81.116272z"/></svg>